<mxfile host="app.diagrams.net" agent="Mozilla/5.0 (Macintosh; Intel Mac OS X 10_15_7) AppleWebKit/537.36 (KHTML, like Gecko) Chrome/128.0.0.0 Safari/537.36" version="24.7.6">
  <diagram id="7gcUSTIZ7YSJ5vT40chW" name="Page-1">
    <mxGraphModel dx="1201" dy="1004" grid="1" gridSize="10" guides="1" tooltips="1" connect="1" arrows="1" fold="1" page="1" pageScale="1" pageWidth="1169" pageHeight="827" math="0" shadow="0">
      <root>
        <mxCell id="0" />
        <mxCell id="1" parent="0" />
        <mxCell id="yN63IE0gt0a8FuFbiREH-17" value="" style="group" vertex="1" connectable="0" parent="1">
          <mxGeometry x="80" y="50" width="654.75" height="260" as="geometry" />
        </mxCell>
        <mxCell id="SZY12_XKgGBlkoAp8IEY-12" style="edgeStyle=orthogonalEdgeStyle;rounded=0;orthogonalLoop=1;jettySize=auto;html=1;strokeColor=#000000;" parent="yN63IE0gt0a8FuFbiREH-17" edge="1">
          <mxGeometry relative="1" as="geometry">
            <mxPoint x="126.75" y="195.5" as="sourcePoint" />
            <mxPoint x="295.5" y="195.5" as="targetPoint" />
          </mxGeometry>
        </mxCell>
        <mxCell id="SZY12_XKgGBlkoAp8IEY-14" style="edgeStyle=orthogonalEdgeStyle;rounded=0;orthogonalLoop=1;jettySize=auto;html=1;exitX=1.033;exitY=0.51;exitDx=0;exitDy=0;exitPerimeter=0;strokeColor=#000000;" parent="yN63IE0gt0a8FuFbiREH-17" edge="1">
          <mxGeometry relative="1" as="geometry">
            <mxPoint x="528.8175000000001" y="196" as="sourcePoint" />
            <mxPoint x="370" y="196" as="targetPoint" />
          </mxGeometry>
        </mxCell>
        <mxCell id="yN63IE0gt0a8FuFbiREH-1" value="" style="image;aspect=fixed;html=1;points=[];align=center;fontSize=12;image=img/lib/azure2/app_services/App_Service_Certificates.svg;" vertex="1" parent="yN63IE0gt0a8FuFbiREH-17">
          <mxGeometry x="60" y="170" width="54.69" height="50" as="geometry" />
        </mxCell>
        <mxCell id="yN63IE0gt0a8FuFbiREH-2" value="&lt;font style=&quot;font-size: 14px;&quot; face=&quot;Verdana&quot;&gt;App Service Certificates&lt;/font&gt;" style="text;html=1;align=center;verticalAlign=middle;resizable=0;points=[];autosize=1;strokeColor=none;fillColor=none;" vertex="1" parent="yN63IE0gt0a8FuFbiREH-17">
          <mxGeometry y="230" width="190" height="30" as="geometry" />
        </mxCell>
        <mxCell id="yN63IE0gt0a8FuFbiREH-3" value="" style="image;sketch=0;aspect=fixed;html=1;points=[];align=center;fontSize=12;image=img/lib/mscae/Key_Vaults.svg;" vertex="1" parent="yN63IE0gt0a8FuFbiREH-17">
          <mxGeometry x="305.44" y="165.25" width="57.12" height="59.5" as="geometry" />
        </mxCell>
        <mxCell id="yN63IE0gt0a8FuFbiREH-4" value="&lt;font style=&quot;font-size: 14px;&quot; face=&quot;Verdana&quot;&gt;KeyVault&lt;/font&gt;" style="text;html=1;align=center;verticalAlign=middle;resizable=0;points=[];autosize=1;strokeColor=none;fillColor=none;" vertex="1" parent="yN63IE0gt0a8FuFbiREH-17">
          <mxGeometry x="294" y="230" width="80" height="30" as="geometry" />
        </mxCell>
        <mxCell id="yN63IE0gt0a8FuFbiREH-5" value="" style="image;sketch=0;aspect=fixed;html=1;points=[];align=center;fontSize=12;image=img/lib/mscae/Application_Gateway.svg;" vertex="1" parent="yN63IE0gt0a8FuFbiREH-17">
          <mxGeometry x="540" y="165.25" width="59.5" height="59.5" as="geometry" />
        </mxCell>
        <mxCell id="yN63IE0gt0a8FuFbiREH-6" value="&lt;font style=&quot;font-size: 14px;&quot; face=&quot;Verdana&quot;&gt;Application Gateway&lt;/font&gt;" style="text;html=1;align=center;verticalAlign=middle;resizable=0;points=[];autosize=1;strokeColor=none;fillColor=none;" vertex="1" parent="yN63IE0gt0a8FuFbiREH-17">
          <mxGeometry x="484.75" y="230" width="170" height="30" as="geometry" />
        </mxCell>
        <mxCell id="yN63IE0gt0a8FuFbiREH-7" value="" style="image;aspect=fixed;html=1;points=[];align=center;fontSize=12;image=img/lib/azure2/identity/Managed_Identities.svg;" vertex="1" parent="yN63IE0gt0a8FuFbiREH-17">
          <mxGeometry x="535.75" y="30" width="68" height="66" as="geometry" />
        </mxCell>
        <mxCell id="yN63IE0gt0a8FuFbiREH-8" style="edgeStyle=orthogonalEdgeStyle;rounded=0;orthogonalLoop=1;jettySize=auto;html=1;strokeColor=#000000;" edge="1" parent="yN63IE0gt0a8FuFbiREH-17">
          <mxGeometry relative="1" as="geometry">
            <mxPoint x="569.25" y="160" as="sourcePoint" />
            <mxPoint x="569.5" y="96" as="targetPoint" />
          </mxGeometry>
        </mxCell>
        <mxCell id="yN63IE0gt0a8FuFbiREH-9" value="&lt;font face=&quot;Verdana&quot;&gt;&lt;span style=&quot;font-size: 14px;&quot;&gt;Azure AD&lt;/span&gt;&lt;/font&gt;" style="text;html=1;align=center;verticalAlign=middle;resizable=0;points=[];autosize=1;strokeColor=none;fillColor=none;" vertex="1" parent="yN63IE0gt0a8FuFbiREH-17">
          <mxGeometry x="524.75" width="90" height="30" as="geometry" />
        </mxCell>
        <mxCell id="yN63IE0gt0a8FuFbiREH-13" value="" style="group" vertex="1" connectable="0" parent="yN63IE0gt0a8FuFbiREH-17">
          <mxGeometry x="420" y="130" width="70" height="70" as="geometry" />
        </mxCell>
        <mxCell id="yN63IE0gt0a8FuFbiREH-10" value="" style="sketch=0;html=1;aspect=fixed;strokeColor=none;shadow=0;fillColor=#3B8DF1;verticalAlign=top;labelPosition=center;verticalLabelPosition=bottom;shape=mxgraph.gcp2.gear" vertex="1" parent="yN63IE0gt0a8FuFbiREH-13">
          <mxGeometry x="30" y="10" width="30" height="30" as="geometry" />
        </mxCell>
        <mxCell id="yN63IE0gt0a8FuFbiREH-11" value="" style="sketch=0;html=1;aspect=fixed;strokeColor=none;shadow=0;fillColor=#3B8DF1;verticalAlign=top;labelPosition=center;verticalLabelPosition=bottom;shape=mxgraph.gcp2.gear" vertex="1" parent="yN63IE0gt0a8FuFbiREH-13">
          <mxGeometry x="10" width="20" height="20" as="geometry" />
        </mxCell>
        <mxCell id="yN63IE0gt0a8FuFbiREH-12" value="&lt;font face=&quot;Verdana&quot;&gt;&lt;span style=&quot;font-size: 14px;&quot;&gt;polling&lt;/span&gt;&lt;/font&gt;" style="text;html=1;align=center;verticalAlign=middle;resizable=0;points=[];autosize=1;strokeColor=none;fillColor=none;" vertex="1" parent="yN63IE0gt0a8FuFbiREH-13">
          <mxGeometry y="40" width="70" height="30" as="geometry" />
        </mxCell>
        <mxCell id="yN63IE0gt0a8FuFbiREH-14" value="" style="verticalLabelPosition=bottom;html=1;verticalAlign=top;align=center;strokeColor=none;fillColor=#00BEF2;shape=mxgraph.azure.user;" vertex="1" parent="yN63IE0gt0a8FuFbiREH-17">
          <mxGeometry x="63.589999999999975" y="20" width="47.5" height="50" as="geometry" />
        </mxCell>
        <mxCell id="yN63IE0gt0a8FuFbiREH-15" value="&lt;font face=&quot;Verdana&quot;&gt;&lt;span style=&quot;font-size: 14px;&quot;&gt;User&lt;/span&gt;&lt;/font&gt;" style="text;html=1;align=center;verticalAlign=middle;resizable=0;points=[];autosize=1;strokeColor=none;fillColor=none;" vertex="1" parent="yN63IE0gt0a8FuFbiREH-17">
          <mxGeometry x="57.35000000000002" y="80" width="60" height="30" as="geometry" />
        </mxCell>
        <mxCell id="yN63IE0gt0a8FuFbiREH-16" style="edgeStyle=orthogonalEdgeStyle;rounded=0;orthogonalLoop=1;jettySize=auto;html=1;strokeColor=#000000;" edge="1" parent="yN63IE0gt0a8FuFbiREH-17">
          <mxGeometry relative="1" as="geometry">
            <mxPoint x="122.1" y="62.5" as="sourcePoint" />
            <mxPoint x="524.75" y="62.5" as="targetPoint" />
          </mxGeometry>
        </mxCell>
      </root>
    </mxGraphModel>
  </diagram>
</mxfile>
